PathFileType  4	(X/Y/Z) C:\Users\antoi\Documents\MyRepositories\mobilecap\ResultsAnalysis
DataRate	CameraRate	NumFrames	NumMarkers	Units	OrigDataRate	OrigDataStartFrame	OrigNumFrames
100.0	100.0	6	51	mm	100.0	24	184
Frame#	Time	r_knee			r_shank_antsup			r_ankle			r_calc			r_5meta			r_toe			L_knee			L_shank_antsup			L_ankle			L_calc			L_5meta			L_toe			r_sh2			r_sh3			r_sh4			L_sh2			L_sh3			r_thigh1			r_thigh2			r_thigh3			r_thigh4			r_thigh5			L_thigh1			L_thigh2			L_thigh3			L_thigh4			r.ASIS			r.PSIS			L.ASIS			L.PSIS			C7			R_Shoulder			L_Shoulder			R_Sternum			L_Sternum			R_humerus			R_elbow_med			R_elbow_lat			R_forearm			R_wrist_radius			R_wrist_ulna			L_humerus			L_elbow_med			L_elbow_lat			L_forearm			L_wrist_radius			L_wrist_ulna			R_HJC			L_HJC			R_HJC_reg			L_HJC_reg			
		X1	Y1	Z1	X2	Y2	Z2	X3	Y3	Z3	X4	Y4	Z4	X5	Y5	Z5	X6	Y6	Z6	X7	Y7	Z7	X8	Y8	Z8	X9	Y9	Z9	X10	Y10	Z10	X11	Y11	Z11	X12	Y12	Z12	X13	Y13	Z13	X14	Y14	Z14	X15	Y15	Z15	X16	Y16	Z16	X17	Y17	Z17	X18	Y18	Z18	X19	Y19	Z19	X20	Y20	Z20	X21	Y21	Z21	X22	Y22	Z22	X23	Y23	Z23	X24	Y24	Z24	X25	Y25	Z25	X26	Y26	Z26	X27	Y27	Z27	X28	Y28	Z28	X29	Y29	Z29	X30	Y30	Z30	X31	Y31	Z31	X32	Y32	Z32	X33	Y33	Z33	X34	Y34	Z34	X35	Y35	Z35	X36	Y36	Z36	X37	Y37	Z37	X38	Y38	Z38	X39	Y39	Z39	X40	Y40	Z40	X41	Y41	Z41	X42	Y42	Z42	X43	Y43	Z43	X44	Y44	Z44	X45	Y45	Z45	X46	Y46	Z46	X47	Y47	Z47	X48	Y48	Z48	X49	Y49	Z49	X50	Y50	Z50	X51	Y51	Z51	

24	0.23000000	146.63313	605.02391	-101.45462	183.08161	457.01091	-113.33221	136.66473	91.65413	-134.54851	81.87222	73.97264	-198.33563	276.74242	40.44019	-110.83208	314.04012	70.31696	-159.35568	-0.54319	593.07327	-424.24382	-94.14028	420.79374	-391.27925	-378.95820	299.96271	-335.30437	-411.48178	333.28921	-257.65186	-397.47181	137.21216	-367.77638	-336.49579	114.08986	-327.13343	186.43269	344.72622	-125.08364	119.68935	448.55973	-68.54230	120.62762	335.13731	-73.77803	-144.53728	480.38074	-432.99341	-236.81963	415.68657	-398.59206	117.66301	891.87334	-58.27193	156.81905	788.99683	-68.65983	105.65396	745.43083	-60.44071	9.31972	856.97415	-76.35515	50.59810	745.60214	-78.12506	54.26706	887.86567	-432.67034	62.22241	753.71153	-439.59786	-56.89204	884.74471	-417.68135	-47.48961	748.56579	-429.91164	108.89459	1161.71328	-113.87247	-94.45837	1193.42450	-166.00184	48.70454	1161.43857	-385.93872	-113.01320	1195.94414	-256.80914	-17.97130	1681.95514	-183.05871	56.80283	1604.96770	-23.31393	28.53939	1664.58044	-367.27557	115.16424	1576.63097	-178.11847	114.33636	1586.69162	-234.29700	-10.64643	1341.45897	31.43643	-129.89018	1254.79007	-2.54251	-106.12130	1268.26680	69.69447	-19.79385	1067.01240	64.18122	12.06237	978.16869	48.85162	-17.52262	972.71840	75.59019	-23.30083	1382.79170	-462.00036	-126.13738	1324.41185	-423.35568	-101.16454	1320.63359	-494.89951	-38.77020	1123.57842	-528.53916	-20.12087	1044.15377	-524.25305	-42.89598	1051.34533	-549.32529	22.92025	1066.81637	-138.26783	-23.57017	1070.68812	-330.15853	30.43013	1073.99503	-141.11362	-6.37325	1078.99214	-321.22946	
25	0.24000000	151.72917	605.13069	-101.66626	186.69840	456.78534	-113.69229	136.88172	91.98107	-134.85592	81.98771	74.08299	-198.56972	276.80698	40.55192	-110.89218	314.21390	70.06890	-159.67679	20.23196	596.68168	-425.25409	-72.18963	424.10580	-393.34375	-355.93492	301.34502	-336.48018	-389.34743	332.73247	-258.23936	-370.78308	138.73885	-371.27211	-309.29967	116.59053	-330.95482	189.04986	344.48099	-125.51885	123.27208	448.82024	-68.86338	123.16554	335.43438	-74.23065	-123.14296	484.16924	-433.71090	-214.54868	418.22867	-399.44891	125.70350	892.45208	-58.40990	163.97778	789.22230	-69.04493	112.22797	746.01240	-60.18194	17.14188	858.43218	-75.87809	57.35169	746.68970	-77.77504	68.65735	892.06372	-433.09913	79.71427	758.06839	-440.41216	-42.21990	886.39166	-418.29260	-29.82981	750.46776	-431.09336	118.64601	1163.34288	-113.73480	-84.88889	1194.97846	-165.32508	57.82547	1164.07682	-385.49732	-103.62615	1197.66002	-256.14064	-8.51560	1683.67539	-180.84448	66.81892	1606.06830	-21.79960	36.99892	1667.24666	-365.26861	124.63524	1578.27303	-176.86759	123.80023	1588.73805	-232.93164	0.65678	1342.18327	32.79613	-118.37701	1255.00612	-0.81274	-94.43079	1268.53510	71.40535	-6.68438	1068.03585	64.96816	26.22254	979.40457	49.84946	-3.77137	973.65924	76.58357	-15.45619	1385.99132	-461.10431	-118.13644	1327.37928	-422.24788	-93.38388	1323.92147	-493.94479	-30.00668	1127.26053	-528.04465	-10.71044	1047.98938	-523.98120	-33.53085	1055.02156	-548.93148	32.76686	1068.41282	-138.28597	-14.10917	1072.93526	-330.06712	40.16051	1075.91833	-140.95805	3.03537	1081.23126	-320.89219	
26	0.25000000	156.38294	605.13059	-101.92012	189.96573	456.49678	-114.08267	137.03826	92.30736	-135.23552	82.07161	74.15730	-198.87271	276.84352	40.70290	-110.97768	314.38375	69.88168	-160.00228	40.68651	600.40944	-426.12486	-50.05511	427.09451	-395.38131	-332.36092	301.48373	-337.82190	-366.61170	331.10132	-259.11924	-343.51655	139.06490	-374.65227	-281.41650	117.91730	-334.65882	191.40438	344.17958	-125.98461	126.45057	448.99451	-69.34709	125.32881	335.63759	-74.87331	-101.71412	487.49595	-434.39039	-192.20869	420.13591	-400.38197	133.39266	892.83633	-58.46911	170.68073	789.21685	-69.31926	118.38053	746.39268	-59.94844	24.64146	859.76836	-75.57646	63.69783	747.66945	-77.58270	82.90148	896.28711	-433.39080	97.04273	762.54532	-441.04806	-27.68237	888.14758	-418.87215	-12.28335	752.49789	-432.24512	128.20725	1164.87298	-113.44475	-75.47452	1196.43816	-164.63175	66.89306	1166.60889	-384.98800	-94.35039	1199.29296	-255.47881	0.79631	1685.32217	-178.79669	76.64420	1607.23715	-20.41836	45.42893	1669.80091	-363.38791	133.95893	1579.88853	-175.69655	133.18877	1590.72414	-231.67690	11.80631	1343.00448	34.09183	-106.96282	1255.26262	0.72462	-82.91030	1268.88885	72.96122	6.32432	1069.19611	65.72924	40.43141	980.76146	50.92700	9.91058	974.75787	77.63910	-7.52256	1389.02704	-460.19715	-110.03161	1330.16592	-421.09884	-85.53614	1327.02866	-492.96737	-21.21042	1130.78774	-527.49978	-1.62763	1051.49688	-523.71931	-24.07610	1058.53591	-548.46976	42.42571	1069.91489	-138.22658	-4.73084	1075.08730	-329.92119	49.71422	1077.70879	-140.71046	12.35328	1083.35934	-320.51754	
27	0.26000000	160.60163	605.04423	-102.19086	192.92285	456.16282	-114.49615	137.12735	92.62601	-135.63666	82.12204	74.19804	-199.20742	276.84865	40.87191	-111.08199	314.55068	69.71929	-160.32299	60.79702	604.19501	-426.85609	-27.75687	429.73560	-397.33254	-308.29390	300.42385	-339.32181	-343.33508	328.41915	-260.28012	-315.68844	138.23104	-377.88780	-252.83250	118.15020	-338.26111	193.52521	343.84068	-126.47487	129.30651	449.09475	-69.90716	127.21915	335.75939	-75.59052	-80.25728	490.26440	-435.09990	-169.89673	421.43371	-401.42890	140.77472	893.05377	-58.45003	176.99316	789.02111	-69.49590	124.09682	746.62338	-59.76285	31.76480	861.05252	-75.47348	69.59372	748.59562	-77.54773	97.03893	900.47475	-433.53153	114.19929	767.07628	-441.49407	-13.26813	889.97607	-419.43129	5.12165	754.63084	-433.36829	137.60620	1166.28244	-113.01855	-66.19243	1197.78862	-163.93738	75.89836	1169.00733	-384.41807	-85.19367	1200.82605	-254.83379	9.99748	1686.86246	-176.89745	86.28920	1608.43626	-19.15235	53.84746	1672.20093	-361.63232	143.15132	1581.44879	-174.59635	142.46038	1592.58313	-230.53380	22.79130	1343.88899	35.33513	-95.67720	1255.53619	2.10293	-71.56757	1269.29522	74.39397	19.21138	1070.43563	66.53490	54.56026	982.20840	52.05608	23.51937	975.97558	78.74589	0.49969	1391.85306	-459.28254	-101.83584	1332.74352	-419.94069	-77.62129	1329.91794	-491.98880	-12.35456	1134.11710	-526.91170	7.17924	1054.66798	-523.48439	-14.54839	1061.85667	-547.95505	51.91063	1071.30525	-138.09935	4.56225	1077.11992	-329.72736	59.13248	1079.34859	-140.36440	21.56198	1085.35439	-320.08559	
28	0.27000000	164.42434	604.89961	-102.43110	195.61989	455.80589	-114.90355	137.15729	92.93267	-136.00155	82.14350	74.21615	-199.53422	276.82047	41.03267	-111.19594	314.72205	69.55034	-160.62027	80.54930	607.99164	-427.44533	-5.33890	432.05281	-399.13737	-283.78630	298.24689	-340.97040	-319.62719	324.68430	-261.70162	-287.16049	136.32211	-380.99664	-223.41792	117.46298	-341.77944	195.45234	343.48893	-126.96294	131.92888	449.13607	-70.43904	128.94925	335.81825	-76.25673	-58.80640	492.45112	-435.87256	-147.65123	422.15030	-402.58151	147.88748	893.15065	-58.35676	183.01296	788.69609	-69.58475	129.39106	746.77917	-59.62652	38.51487	862.34197	-75.54992	75.03663	749.51708	-77.62904	111.08569	904.57801	-433.51242	131.15756	771.59940	-441.74539	1.03187	891.85065	-420.00673	22.34714	756.84531	-434.45986	146.86233	1167.55727	-112.47688	-57.01784	1199.01764	-163.26442	84.83879	1171.24664	-383.79696	-76.15852	1202.24467	-254.22493	19.10416	1688.27313	-175.14146	95.76795	1609.62484	-17.98826	62.26117	1674.40884	-360.00369	152.22361	1582.92933	-173.56230	151.55757	1594.24856	-229.50389	33.60342	1344.79751	36.53045	-84.54112	1255.80292	3.36309	-60.41115	1269.72160	75.73504	31.95616	1071.69915	67.44503	68.45536	983.70342	53.21221	37.04052	977.26769	79.89802	8.60568	1394.42898	-458.36642	-93.56265	1335.08466	-418.80356	-69.63652	1332.55454	-491.02807	-3.40130	1137.20468	-526.29491	15.91950	1057.55908	-523.26340	-4.95668	1064.94952	-547.40639	61.23423	1072.57156	-137.91709	13.77309	1079.01076	-329.49679	68.45387	1080.82524	-139.92015	30.64813	1087.19873	-319.58119	
29	0.28000000	167.90875	604.72628	-102.58367	198.10305	455.44651	-115.25591	137.15157	93.22219	-136.28714	82.14719	74.22820	-199.82102	276.75899	41.15795	-111.30863	314.90580	69.35042	-160.87173	99.93900	611.76494	-427.88852	17.13989	434.09611	-400.75349	-258.87536	295.05023	-342.75863	-295.59137	319.88366	-263.36300	-257.73219	133.45448	-384.02119	-193.02845	116.07918	-345.21221	197.22438	343.14587	-127.40381	134.38583	449.13468	-70.84755	130.60579	335.83457	-76.76975	-37.41115	494.09460	-436.70402	-125.45072	422.30375	-403.80225	154.75618	893.18142	-58.19539	188.82493	788.31137	-69.58020	134.31754	746.93936	-59.51665	44.94626	863.67073	-75.74444	80.06614	750.46910	-77.75285	125.02872	908.56267	-433.33242	147.87719	776.06055	-441.80201	15.21335	893.76175	-420.64779	39.35434	759.11662	-435.50744	155.98668	1168.69033	-111.84432	-47.93019	1200.12109	-162.63368	93.72243	1173.30321	-383.13527	-67.23464	1203.53402	-253.66806	28.11468	1689.54640	-173.53739	105.09226	1610.76579	-16.91857	70.67170	1676.39567	-358.50817	161.18257	1584.31255	-172.59405	160.43122	1595.67485	-228.58612	44.23410	1345.69030	37.67862	-73.56662	1256.03830	4.54890	-49.44966	1270.13807	77.01345	44.54250	1072.94565	68.48647	81.98284	985.19889	54.38387	50.44677	978.58961	81.09385	16.79063	1396.72690	-457.45779	-85.22241	1337.16635	-417.71314	-61.57368	1334.90938	-490.10096	5.68426	1140.01408	-525.67054	24.90439	1060.27603	-523.00986	4.69532	1067.78166	-546.84389	70.40931	1073.70698	-137.68999	22.91023	1080.73998	-329.23937	77.69734	1082.14392	-139.38264	39.61095	1088.87645	-318.99663	
